<svg width="40" height="48" viewBox="0 0 40 48" fill="none" xmlns="http://www.w3.org/2000/svg">
<path d="M0 0L17.0877 0C20.2451 0 23.2171 1.49123 25.1045 4.02253L35.5431 18.0225C38.1873 21.5689 38.1873 26.4311 35.5431 29.9775L25.1045 43.9775C23.2171 46.5088 20.2451 48 17.0877 48H0V0Z" fill="#10274A"/>
<path d="M16.473 28.7463L20.7584 24.3929C21.0805 24.0653 21.0805 23.4857 20.7584 23.157L16.473 18.8035C16.1384 18.4643 15.5977 18.4655 15.2654 18.807C14.933 19.1485 14.933 19.6991 15.2677 20.0394L18.087 22.9049H10.8537C10.3813 22.9049 10 23.2952 10 23.7761C10 24.257 10.3813 24.6472 10.8537 24.6472H18.087L15.2677 27.5116C15.1003 27.6824 15.0173 27.9054 15.0173 28.1296C15.0173 28.3514 15.1003 28.5744 15.2654 28.744C15.5977 29.0844 16.1384 29.0855 16.473 28.7463Z" fill="white"/>
</svg>
