<svg width="40" height="38" viewBox="0 0 40 38" fill="none" xmlns="http://www.w3.org/2000/svg">
<path d="M0 0L17.7866 0C20.5427 0 23.1766 1.1375 25.0662 3.14384L33.5427 12.1438C37.1698 15.995 37.1698 22.005 33.5427 25.8562L25.0662 34.8562C23.1766 36.8625 20.5427 38 17.7866 38H0V0Z" fill="#10274A"/>
<path d="M16.473 23.7463L20.7584 19.3929C21.0805 19.0653 21.0805 18.4857 20.7584 18.157L16.473 13.8035C16.1384 13.4643 15.5977 13.4655 15.2654 13.807C14.933 14.1485 14.933 14.6991 15.2677 15.0394L18.087 17.9049H10.8537C10.3813 17.9049 10 18.2952 10 18.7761C10 19.257 10.3813 19.6472 10.8537 19.6472H18.087L15.2677 22.5116C15.1003 22.6824 15.0173 22.9054 15.0173 23.1296C15.0173 23.3514 15.1003 23.5744 15.2654 23.744C15.5977 24.0844 16.1384 24.0855 16.473 23.7463Z" fill="white"/>
</svg>
