<svg xmlns="http://www.w3.org/2000/svg" width="26.391" height="21.86" viewBox="0 0 26.391 21.86">
  <path id="attach_file" data-name="attach file" d="M16.957-5.637a4.213,4.213,0,0,0,6.105-.023l5.391-5.4a.686.686,0,0,0-.012-.973.659.659,0,0,0-.949.023L22.148-6.668a2.856,2.856,0,0,1-4.2.07,2.886,2.886,0,0,1,.035-4.23l6.773-6.762a1.84,1.84,0,0,1,2.648-.152,1.8,1.8,0,0,1-.164,2.625l-6.6,6.633a.544.544,0,0,1-.832.012.554.554,0,0,1,.012-.855l4.664-4.664a.641.641,0,0,0,.023-.926.628.628,0,0,0-.914.023l-4.7,4.7a1.879,1.879,0,0,0-.059,2.672,1.833,1.833,0,0,0,2.684-.035l6.645-6.633a3.04,3.04,0,0,0,.117-4.477,3.068,3.068,0,0,0-4.477.105L17-11.742A4.223,4.223,0,0,0,16.957-5.637ZM29.016-8.848,27.082-6.926v5.566A1.516,1.516,0,0,1,25.406.34H6.434a1.511,1.511,0,0,1-1.676-1.7V-14.625a1.5,1.5,0,0,1,1.676-1.687h12.34L20.7-18.246H6.363c-2.344,0-3.539,1.172-3.539,3.492V-1.23c0,2.32,1.2,3.5,3.539,3.5H25.477c2.344,0,3.539-1.184,3.539-3.5Z" transform="translate(-2.824 19.587)" fill="#10274a"/>
</svg>
