<svg xmlns="http://www.w3.org/2000/svg" width="21.176" height="17.379" viewBox="0 0 21.176 17.379">
  <path id="back_arrow" data-name="back arrow" d="M2.824-8.027a1.394,1.394,0,0,0,.434,1L10.535.246a1.372,1.372,0,0,0,.949.422A1.266,1.266,0,0,0,12.809-.621a1.3,1.3,0,0,0-.41-.949L9.9-4.1,6.914-6.832l2.531.152H22.617A1.3,1.3,0,0,0,24-8.027a1.292,1.292,0,0,0-1.383-1.336H9.445l-2.52.141L9.9-11.953l2.5-2.52a1.345,1.345,0,0,0,.41-.961,1.263,1.263,0,0,0-1.324-1.277,1.318,1.318,0,0,0-.961.434L3.258-9.023A1.436,1.436,0,0,0,2.824-8.027Z" transform="translate(-2.824 16.711)" fill="#10274a"/>
</svg>
