<svg xmlns="http://www.w3.org/2000/svg" width="22.254" height="20.52" viewBox="0 0 22.254 20.52">
  <path id="calendar" d="M6.363,2.273H21.551c2.344,0,3.527-1.184,3.527-3.5V-14.754c0-2.309-1.184-3.492-3.527-3.492H6.363c-2.344,0-3.539,1.172-3.539,3.492V-1.23C2.824,1.09,4.02,2.273,6.363,2.273ZM6.258.34a1.346,1.346,0,0,1-1.5-1.523V-11.543a1.351,1.351,0,0,1,1.5-1.523H21.645a1.364,1.364,0,0,1,1.512,1.523V-1.184A1.359,1.359,0,0,1,21.645.34ZM11.8-9.129h.645c.4,0,.527-.117.527-.516v-.645c0-.387-.129-.516-.527-.516H11.8c-.4,0-.527.129-.527.516v.645C11.273-9.246,11.4-9.129,11.8-9.129Zm3.656,0h.656c.387,0,.516-.117.516-.516v-.645c0-.387-.129-.516-.516-.516h-.656c-.387,0-.516.129-.516.516v.645C14.941-9.246,15.07-9.129,15.457-9.129Zm3.668,0h.645c.4,0,.527-.117.527-.516v-.645c0-.387-.129-.516-.527-.516h-.645c-.4,0-.527.129-.527.516v.645C18.6-9.246,18.727-9.129,19.125-9.129ZM8.133-5.531h.656c.387,0,.516-.117.516-.5v-.656c0-.387-.129-.5-.516-.5H8.133c-.387,0-.516.117-.516.5v.656C7.617-5.648,7.746-5.531,8.133-5.531Zm3.668,0h.645c.4,0,.527-.117.527-.5v-.656c0-.387-.129-.5-.527-.5H11.8c-.4,0-.527.117-.527.5v.656C11.273-5.648,11.4-5.531,11.8-5.531Zm3.656,0h.656c.387,0,.516-.117.516-.5v-.656c0-.387-.129-.5-.516-.5h-.656c-.387,0-.516.117-.516.5v.656C14.941-5.648,15.07-5.531,15.457-5.531Zm3.668,0h.645c.4,0,.527-.117.527-.5v-.656c0-.387-.129-.5-.527-.5h-.645c-.4,0-.527.117-.527.5v.656C18.6-5.648,18.727-5.531,19.125-5.531ZM8.133-1.922h.656c.387,0,.516-.117.516-.5v-.656c0-.387-.129-.5-.516-.5H8.133c-.387,0-.516.117-.516.5v.656C7.617-2.039,7.746-1.922,8.133-1.922Zm3.668,0h.645c.4,0,.527-.117.527-.5v-.656c0-.387-.129-.5-.527-.5H11.8c-.4,0-.527.117-.527.5v.656C11.273-2.039,11.4-1.922,11.8-1.922Zm3.656,0h.656c.387,0,.516-.117.516-.5v-.656c0-.387-.129-.5-.516-.5h-.656c-.387,0-.516.117-.516.5v.656C14.941-2.039,15.07-1.922,15.457-1.922Z" transform="translate(-2.824 18.246)" fill="#10274a"/>
</svg>
