<svg xmlns="http://www.w3.org/2000/svg" width="20.52" height="20.52" viewBox="0 0 20.52 20.52">
  <g id="check" transform="translate(-848.824 -376.754)">
    <path id="border" d="M6.363,2.273H19.8c2.344,0,3.539-1.184,3.539-3.5V-14.754c0-2.309-1.2-3.492-3.539-3.492H6.363c-2.344,0-3.539,1.172-3.539,3.492V-1.23C2.824,1.09,4.02,2.273,6.363,2.273ZM6.434.34a1.511,1.511,0,0,1-1.676-1.7V-14.625a1.5,1.5,0,0,1,1.676-1.687h13.3a1.507,1.507,0,0,1,1.676,1.688V-1.359A1.516,1.516,0,0,1,19.734.34Z" transform="translate(846 395)" fill="#10274a"/>
    <path id="check-2" data-name="check" d="M-1.113,1.084A1.145,1.145,0,0,0-.1.574L5.033-7.172a1.291,1.291,0,0,0,.234-.715A1.063,1.063,0,0,0,4.16-8.959a1.04,1.04,0,0,0-.967.568l-4.33,6.8-2.174-2.6a1.026,1.026,0,0,0-.855-.4,1.059,1.059,0,0,0-1.1,1.078,1.106,1.106,0,0,0,.322.785L-2.092.633A1.2,1.2,0,0,0-1.113,1.084Z" transform="translate(859 391)" fill="#10274a"/>
  </g>
</svg>
