<svg xmlns="http://www.w3.org/2000/svg" width="22.723" height="22.711" viewBox="0 0 22.723 22.711">
  <path id="clock" d="M13.348,3.352A11.434,11.434,0,0,0,24.7-8,11.444,11.444,0,0,0,13.336-19.359,11.434,11.434,0,0,0,1.98-8,11.444,11.444,0,0,0,13.348,3.352Zm0-2.016A9.3,9.3,0,0,1,4.02-8a9.293,9.293,0,0,1,9.316-9.34A9.33,9.33,0,0,1,22.688-8,9.305,9.305,0,0,1,13.348,1.336ZM7.617-6.738h5.719a.8.8,0,0,0,.809-.82v-7.395a.8.8,0,0,0-.809-.809.8.8,0,0,0-.809.809v6.6H7.617a.793.793,0,0,0-.809.8A.8.8,0,0,0,7.617-6.738Z" transform="translate(-1.98 19.359)" fill="#10274a"/>
</svg>
