<svg xmlns="http://www.w3.org/2000/svg" width="22.723" height="22.711" viewBox="0 0 22.723 22.711">
  <path id="close_2" d="M13.348,3.352A11.434,11.434,0,0,0,24.7-8,11.444,11.444,0,0,0,13.336-19.359,11.434,11.434,0,0,0,1.98-8,11.444,11.444,0,0,0,13.348,3.352ZM9.48-3.164a.963.963,0,0,1-.961-.984A.913.913,0,0,1,8.8-4.816l3.176-3.176L8.8-11.168a.894.894,0,0,1-.281-.668.941.941,0,0,1,.961-.949.867.867,0,0,1,.668.27L13.336-9.34l3.2-3.187a.912.912,0,0,1,.68-.281.955.955,0,0,1,.961.949.985.985,0,0,1-.281.691L14.707-7.992l3.176,3.164a.988.988,0,0,1,.281.68.973.973,0,0,1-.973.984,1.006,1.006,0,0,1-.691-.293L13.336-6.633,10.184-3.457A.984.984,0,0,1,9.48-3.164Z" transform="translate(-1.98 19.359)" fill="#10274a"/>
</svg>
