<svg xmlns="http://www.w3.org/2000/svg" width="23.906" height="23.906" viewBox="0 0 23.906 23.906">
  <path id="close" d="M-14.051,3.492A12.042,12.042,0,0,0-2.1-8.461,12.044,12.044,0,0,0-14.062-20.414,12.032,12.032,0,0,0-26-8.461,12.049,12.049,0,0,0-14.051,3.492Zm0-1.992A9.913,9.913,0,0,1-24-8.461a9.9,9.9,0,0,1,9.938-9.961A9.94,9.94,0,0,1-4.09-8.461,9.915,9.915,0,0,1-14.051,1.5Zm-4.008-4.992a.912.912,0,0,0,.68-.293l3.316-3.34,3.34,3.34a.93.93,0,0,0,.668.293.95.95,0,0,0,.938-.949A.876.876,0,0,0-9.4-5.109l-3.328-3.328,3.34-3.352a.862.862,0,0,0,.281-.656.933.933,0,0,0-.937-.937.855.855,0,0,0-.645.281L-14.062-9.75l-3.34-3.34a.842.842,0,0,0-.656-.27.923.923,0,0,0-.937.926.913.913,0,0,0,.281.656l3.328,3.34L-18.715-5.1A.893.893,0,0,0-19-4.441.95.95,0,0,0-18.059-3.492Z" transform="translate(26.004 20.414)" fill="#10274a"/>
</svg>
