<svg xmlns="http://www.w3.org/2000/svg" width="28.178" height="35.771" viewBox="0 0 28.178 35.771">
  <path id="document_2" d="M-8.851,5.889h17.7c3.463,0,5.238-1.793,5.238-5.309V-14.5c0-2.2-.264-3.182-1.635-4.588L3.437-28.248A5.125,5.125,0,0,0-.905-29.883H-8.851c-3.463,0-5.238,1.793-5.238,5.309V.58C-14.089,4.113-12.313,5.889-8.851,5.889Zm.193-2.883A2.253,2.253,0,0,1-11.188.492V-24.486A2.261,2.261,0,0,1-8.657-27H-1.38v9.457c0,2.2,1.107,3.27,3.287,3.27h9.281V.492A2.261,2.261,0,0,1,8.657,3.006ZM2.206-16.91c-.668,0-.949-.281-.949-.949v-8.648l9.439,9.6ZM6.021-9.756H-6.39a1.018,1.018,0,0,0-1.055,1.02A1.036,1.036,0,0,0-6.39-7.682H6.021A1.032,1.032,0,0,0,7.058-8.736,1.013,1.013,0,0,0,6.021-9.756Zm0,5.73H-6.39A1.021,1.021,0,0,0-7.444-2.988,1.007,1.007,0,0,0-6.39-1.969H6.021a1,1,0,0,0,1.037-1.02A1.017,1.017,0,0,0,6.021-4.025Z" transform="translate(14.089 29.883)" fill="#10274a" opacity="0.1"/>
</svg>
