<svg xmlns="http://www.w3.org/2000/svg" width="18.785" height="23.848" viewBox="0 0 18.785 23.848">
  <path id="document" d="M6.316,3.926h11.8c2.309,0,3.492-1.2,3.492-3.539V-9.668a3.574,3.574,0,0,0-1.09-3.059l-6.012-6.105a3.417,3.417,0,0,0-2.895-1.09h-5.3c-2.309,0-3.492,1.2-3.492,3.539V.387C2.824,2.742,4.008,3.926,6.316,3.926ZM6.445,2A1.5,1.5,0,0,1,4.758.328V-16.324A1.507,1.507,0,0,1,6.445-18H11.3v6.3a1.93,1.93,0,0,0,2.191,2.18h6.188V.328A1.507,1.507,0,0,1,17.988,2Zm7.242-13.277c-.445,0-.633-.187-.633-.633v-5.766l6.293,6.4Z" transform="translate(-2.824 19.922)" fill="#fff"/>
</svg>
