<svg xmlns="http://www.w3.org/2000/svg" width="19.805" height="23.965" viewBox="0 0 19.805 23.965">
  <path id="download" d="M12.738-3.539a.938.938,0,0,0,.691-.3l3.738-3.609a.863.863,0,0,0,.27-.609.817.817,0,0,0-.855-.82.831.831,0,0,0-.621.281L14.32-6.855l-.738.8.082-1.652V-19.336a.933.933,0,0,0-.926-.914.936.936,0,0,0-.937.914V-7.711l.082,1.652-.738-.8L9.516-8.6a.88.88,0,0,0-.645-.281.807.807,0,0,0-.844.82.83.83,0,0,0,.281.609l3.738,3.609A.9.9,0,0,0,12.738-3.539ZM6.363,3.715H19.09c2.355,0,3.539-1.184,3.539-3.492v-11c0-2.32-1.184-3.5-3.539-3.5H16.043v1.934h2.988a1.516,1.516,0,0,1,1.676,1.7V.094a1.516,1.516,0,0,1-1.676,1.7H6.434A1.511,1.511,0,0,1,4.758.094V-10.652a1.511,1.511,0,0,1,1.676-1.7h3v-1.934H6.363c-2.344,0-3.539,1.184-3.539,3.5v11C2.824,2.543,4.02,3.715,6.363,3.715Z" transform="translate(-2.824 20.25)" fill="#10274a"/>
</svg>
