<svg id="eye" xmlns="http://www.w3.org/2000/svg" width="28" height="18.667" viewBox="0 0 28 18.667">
  <path id="Контур_2301" data-name="Контур 2301" d="M14,4C3.5,4,0,13.333,0,13.333a15.014,15.014,0,0,0,14,9.333,15.014,15.014,0,0,0,14-9.333S24.5,4,14,4Zm9.1,12.483a11.9,11.9,0,0,1-9.1,3.85,11.848,11.848,0,0,1-9.217-3.967,23.589,23.589,0,0,1-2.217-3.033A14.274,14.274,0,0,1,4.9,10.183,12.075,12.075,0,0,1,14,6.333,11.848,11.848,0,0,1,23.217,10.3a23.589,23.589,0,0,1,2.217,3.033A14.274,14.274,0,0,1,23.1,16.483Z" transform="translate(0 -4)" fill="#10274a"/>
  <path id="Контур_2302" data-name="Контур 2302" d="M12.667,8a4.667,4.667,0,1,0,4.667,4.667A4.68,4.68,0,0,0,12.667,8Zm0,7A2.333,2.333,0,1,1,15,12.667,2.34,2.34,0,0,1,12.667,15Z" transform="translate(1.333 -3.333)" fill="#10274a"/>
</svg>
