<svg xmlns="http://www.w3.org/2000/svg" width="42.492" height="20.742" viewBox="0 0 42.492 20.742">
  <path id="group" d="M24.082-7.945a5.035,5.035,0,0,0,4.8-5.227,4.923,4.923,0,0,0-4.8-5.086,4.975,4.975,0,0,0-4.816,5.109A5.038,5.038,0,0,0,24.082-7.945Zm-12.809.258a4.416,4.416,0,0,0,4.184-4.594,4.32,4.32,0,0,0-4.184-4.465A4.364,4.364,0,0,0,7.09-12.258,4.41,4.41,0,0,0,11.273-7.687Zm25.605,0a4.4,4.4,0,0,0,4.172-4.57,4.355,4.355,0,0,0-4.172-4.488A4.32,4.32,0,0,0,32.7-12.281,4.408,4.408,0,0,0,36.879-7.687ZM24.082-9.7a3.233,3.233,0,0,1-2.953-3.445,3.147,3.147,0,0,1,2.953-3.34,3.116,3.116,0,0,1,2.941,3.316A3.247,3.247,0,0,1,24.082-9.7Zm-12.809.281a2.681,2.681,0,0,1-2.449-2.836,2.625,2.625,0,0,1,2.449-2.754,2.587,2.587,0,0,1,2.449,2.73A2.68,2.68,0,0,1,11.273-9.422Zm25.605,0a2.689,2.689,0,0,1-2.461-2.859,2.6,2.6,0,0,1,2.461-2.73,2.623,2.623,0,0,1,2.438,2.754A2.68,2.68,0,0,1,36.879-9.422ZM5.121,2.484h8.672A1.858,1.858,0,0,1,12.914.762h-8c-.223,0-.316-.094-.316-.3,0-2.672,3.082-5.191,6.668-5.191a7.426,7.426,0,0,1,3.633.914,5.836,5.836,0,0,1,1.313-1.254,9.139,9.139,0,0,0-4.945-1.383C6.6-6.457,2.824-3.094,2.824.586,2.824,1.852,3.6,2.484,5.121,2.484Zm37.9,0c1.535,0,2.3-.633,2.3-1.9,0-3.68-3.773-7.043-8.437-7.043a9.167,9.167,0,0,0-4.945,1.383A5.9,5.9,0,0,1,33.258-3.82a7.348,7.348,0,0,1,3.621-.914c3.586,0,6.68,2.52,6.68,5.191,0,.211-.105.3-.328.3H35.238a1.867,1.867,0,0,1-.891,1.723Zm-25.887,0H31.02c1.863,0,2.754-.574,2.754-1.816,0-2.953-3.715-7.113-9.7-7.113s-9.7,4.16-9.7,7.113C14.367,1.91,15.258,2.484,17.133,2.484ZM16.652.727c-.27,0-.387-.082-.387-.3,0-1.781,2.789-5.109,7.8-5.109s7.8,3.328,7.8,5.109c0,.223-.105.3-.387.3Z" transform="translate(-2.824 18.258)" fill="#fff"/>
</svg>
