<svg xmlns="http://www.w3.org/2000/svg" width="39.287" height="30.779" viewBox="0 0 39.287 30.779">
  <path id="image" d="M-14.335,3.41h28.67c3.516,0,5.309-1.775,5.309-5.256V-22.131c0-3.463-1.793-5.238-5.309-5.238h-28.67c-3.516,0-5.309,1.758-5.309,5.238V-1.846C-19.644,1.635-17.851,3.41-14.335,3.41Zm-2.408-25.348a2.253,2.253,0,0,1,2.514-2.531H14.229a2.261,2.261,0,0,1,2.514,2.531v18.07l-8.7-8.174a3.762,3.762,0,0,0-2.5-1,3.577,3.577,0,0,0-2.5.984L-4.456-5.344-7.532-8.121a3.362,3.362,0,0,0-2.25-.949,3.1,3.1,0,0,0-2.145.932L-16.743-3.8Zm9.668,10.143a3.942,3.942,0,0,0,3.938-3.937,3.969,3.969,0,0,0-3.937-3.955,3.957,3.957,0,0,0-3.937,3.955A3.931,3.931,0,0,0-7.075-11.795Z" transform="translate(19.644 27.369)" fill="#10274a" opacity="0.1"/>
</svg>
