<svg id="list" xmlns="http://www.w3.org/2000/svg" width="24.002" height="24.002" viewBox="0 0 24.002 24.002">
  <g id="Сгруппировать_98" data-name="Сгруппировать 98">
    <g id="Сгруппировать_97" data-name="Сгруппировать 97">
      <path id="Контур_2314" data-name="Контур 2314" d="M21,0H3A3,3,0,0,0,0,3V21a3,3,0,0,0,3,3H21a3,3,0,0,0,3-3V3A3,3,0,0,0,21,0Zm1,21a1,1,0,0,1-1,1H3a1,1,0,0,1-1-1V3A1,1,0,0,1,3,2H21a1,1,0,0,1,1,1Z" fill="#fff"/>
    </g>
  </g>
  <g id="Сгруппировать_100" data-name="Сгруппировать 100" transform="translate(5 5)">
    <g id="Сгруппировать_99" data-name="Сгруппировать 99">
      <path id="Контур_2315" data-name="Контур 2315" d="M108.587,107.286a1.033,1.033,0,0,0-.21-.33l-.15-.12a.759.759,0,0,0-.18-.09.635.635,0,0,0-.18-.06.956.956,0,0,0-.58.06,1.155,1.155,0,0,0-.33.21,1.033,1.033,0,0,0-.21.33.942.942,0,0,0,0,.76,1.033,1.033,0,0,0,.21.33,1.052,1.052,0,0,0,.71.29,1.5,1.5,0,0,0,.2-.02.635.635,0,0,0,.18-.06.759.759,0,0,0,.18-.09l.15-.12a1.052,1.052,0,0,0,.29-.71A1,1,0,0,0,108.587,107.286Z" transform="translate(-106.667 -106.666)" fill="#fff"/>
    </g>
  </g>
  <g id="Сгруппировать_102" data-name="Сгруппировать 102" transform="translate(9.001 5)">
    <g id="Сгруппировать_101" data-name="Сгруппировать 101">
      <path id="Контур_2316" data-name="Контур 2316" d="M201,106.667h-8a1,1,0,0,0,0,2h8a1,1,0,0,0,0-2Z" transform="translate(-192 -106.667)" fill="#fff"/>
    </g>
  </g>
  <g id="Сгруппировать_104" data-name="Сгруппировать 104" transform="translate(5 11.006)">
    <g id="Сгруппировать_103" data-name="Сгруппировать 103">
      <path id="Контур_2317" data-name="Контур 2317" d="M108.647,235.568a.635.635,0,0,0-.06-.18.759.759,0,0,0-.09-.18l-.12-.15a1.155,1.155,0,0,0-.33-.21,1,1,0,0,0-.76,0,1.155,1.155,0,0,0-.33.21l-.12.15a.759.759,0,0,0-.09.18.635.635,0,0,0-.06.18,1.506,1.506,0,0,0-.02.2,1,1,0,1,0,2,0A1.522,1.522,0,0,0,108.647,235.568Z" transform="translate(-106.667 -234.773)" fill="#fff"/>
    </g>
  </g>
  <g id="Сгруппировать_106" data-name="Сгруппировать 106" transform="translate(9.001 11.001)">
    <g id="Сгруппировать_105" data-name="Сгруппировать 105">
      <path id="Контур_2318" data-name="Контур 2318" d="M201,234.667h-8a1,1,0,0,0,0,2h8a1,1,0,0,0,0-2Z" transform="translate(-192 -234.667)" fill="#fff"/>
    </g>
  </g>
  <g id="Сгруппировать_108" data-name="Сгруппировать 108" transform="translate(5 17.009)">
    <g id="Сгруппировать_107" data-name="Сгруппировать 107">
      <path id="Контур_2319" data-name="Контур 2319" d="M108.587,363.439a.968.968,0,0,0-1.3-.54.9.9,0,0,0-.54.54,1,1,0,1,0,1.92.38A.84.84,0,0,0,108.587,363.439Z" transform="translate(-106.667 -362.827)" fill="#fff"/>
    </g>
  </g>
  <g id="Сгруппировать_110" data-name="Сгруппировать 110" transform="translate(9.001 17.001)">
    <g id="Сгруппировать_109" data-name="Сгруппировать 109">
      <path id="Контур_2320" data-name="Контур 2320" d="M201,362.667h-8a1,1,0,0,0,0,2h8a1,1,0,0,0,0-2Z" transform="translate(-192 -362.667)" fill="#fff"/>
    </g>
  </g>
</svg>
