<svg xmlns="http://www.w3.org/2000/svg" width="21.141" height="23.016" viewBox="0 0 21.141 23.016">
  <path id="notification" d="M-21.715-.586h4.641a4.174,4.174,0,0,0,4.2,4.02,4.173,4.173,0,0,0,4.2-4.02h4.629c1.09,0,1.746-.562,1.746-1.418,0-1.137-1.113-2.145-2.086-3.117-.75-.773-.949-2.332-1.055-3.7-.105-4.3-1.266-7.113-4.2-8.168a3.343,3.343,0,0,0-3.234-2.59,3.343,3.343,0,0,0-3.234,2.59c-2.93,1.055-4.09,3.867-4.2,8.168-.105,1.371-.3,2.93-1.055,3.7-.973.973-2.086,1.98-2.086,3.117C-23.449-1.148-22.793-.586-21.715-.586Zm.6-1.8V-2.52c.234-.328.891-.949,1.465-1.594C-18.879-5-18.5-6.492-18.41-8.637c.117-4.711,1.523-6.234,3.387-6.738a.494.494,0,0,0,.445-.492c.047-1.148.691-1.934,1.7-1.934s1.652.785,1.7,1.934a.494.494,0,0,0,.445.492c1.852.5,3.27,2.027,3.375,6.738.105,2.145.48,3.633,1.254,4.523.574.645,1.219,1.266,1.453,1.594v.129Zm8.238,4.2A2.307,2.307,0,0,1-15.211-.586h4.664A2.315,2.315,0,0,1-12.879,1.8Z" transform="translate(23.449 19.582)" fill="#fff"/>
</svg>
