<svg xmlns="http://www.w3.org/2000/svg" width="22.723" height="22.711" viewBox="0 0 22.723 22.711">
  <path id="pie_chart" data-name="pie chart" d="M13.348,3.352A11.434,11.434,0,0,0,24.7-8,11.444,11.444,0,0,0,13.336-19.359,11.434,11.434,0,0,0,1.98-8,11.444,11.444,0,0,0,13.348,3.352Zm0-2.016A9.3,9.3,0,0,1,4.02-8a9.291,9.291,0,0,1,8.6-9.316v9.5a.887.887,0,0,0,.281.668l6.457,6.3A9.308,9.308,0,0,1,13.348,1.336Zm.867-10.359v-8.285a9.37,9.37,0,0,1,7.008,4.266Zm.668,1.465,7.078-4.066A9.508,9.508,0,0,1,22.688-8,9.267,9.267,0,0,1,20.52-2Z" transform="translate(-1.98 19.359)" fill="#fff"/>
</svg>
