<svg xmlns="http://www.w3.org/2000/svg" width="22.723" height="23.367" viewBox="0 0 22.723 23.367">
  <path id="power" d="M-13.336-8.062a.951.951,0,0,0,.973-1.031v-9.879a.955.955,0,0,0-.973-1.043.964.964,0,0,0-.984,1.043v9.879A.96.96,0,0,0-13.336-8.062Zm0,11.414A11.434,11.434,0,0,0-1.98-8a11.28,11.28,0,0,0-3.645-8.273.99.99,0,1,0-1.359,1.43A9.349,9.349,0,0,1-4-8a9.305,9.305,0,0,1-9.34,9.34A9.3,9.3,0,0,1-22.664-8a9.282,9.282,0,0,1,2.977-6.855.994.994,0,1,0-1.371-1.43A11.307,11.307,0,0,0-24.7-8,11.444,11.444,0,0,0-13.336,3.352Z" transform="translate(24.703 20.016)" fill="#fff"/>
</svg>
