<svg xmlns="http://www.w3.org/2000/svg" width="20.953" height="21.152" viewBox="0 0 20.953 21.152">
  <path id="search" d="M-1.887-1.395a8.537,8.537,0,0,0,4.9-1.547L8.133,2.18a1.38,1.38,0,0,0,1,.4A1.334,1.334,0,0,0,10.477,1.2,1.334,1.334,0,0,0,10.09.223L5-4.875A8.522,8.522,0,0,0,6.7-9.984a8.61,8.61,0,0,0-8.59-8.59,8.6,8.6,0,0,0-8.59,8.59A8.61,8.61,0,0,0-1.887-1.395Zm0-2a6.624,6.624,0,0,1-6.6-6.586,6.624,6.624,0,0,1,6.6-6.586A6.622,6.622,0,0,1,4.7-9.984,6.622,6.622,0,0,1-1.887-3.4Z" transform="translate(10.477 18.574)" fill="#fff"/>
</svg>
