<svg xmlns="http://www.w3.org/2000/svg" width="25.102" height="24.729" viewBox="0 0 25.102 24.729">
  <path id="setting" d="M-14.531,2.895c.281,0,.551-.023.844-.047l.633,1.207a.637.637,0,0,0,.7.352.648.648,0,0,0,.539-.574l.188-1.336a11.8,11.8,0,0,0,1.594-.574l.984.891a.648.648,0,0,0,.8.094.666.666,0,0,0,.293-.727L-8.227.867a11.131,11.131,0,0,0,1.3-1.078L-5.707.3A.636.636,0,0,0-4.922.094.617.617,0,0,0-4.863-.68l-.715-1.137a10.519,10.519,0,0,0,.832-1.465l1.348.059a.626.626,0,0,0,.656-.434.662.662,0,0,0-.234-.762L-4.031-5.25a9.495,9.495,0,0,0,.3-1.664l1.266-.41a.661.661,0,0,0,.48-.633.661.661,0,0,0-.48-.633L-3.727-9a9.7,9.7,0,0,0-.3-1.664l1.055-.832a.662.662,0,0,0,.234-.75A.626.626,0,0,0-3.4-12.68l-1.348.047A11.239,11.239,0,0,0-5.578-14.1l.715-1.137A.6.6,0,0,0-4.922-16a.65.65,0,0,0-.785-.211l-1.219.5a12.44,12.44,0,0,0-1.3-1.078l.27-1.3a.652.652,0,0,0-.293-.727.635.635,0,0,0-.8.094l-.984.879a11.8,11.8,0,0,0-1.594-.574l-.187-1.324a.66.66,0,0,0-.539-.574.66.66,0,0,0-.7.34l-.633,1.207c-.293-.023-.562-.035-.844-.035s-.551.012-.855.035l-.621-1.207a.686.686,0,0,0-.715-.34.66.66,0,0,0-.539.574l-.187,1.324a11.11,11.11,0,0,0-1.582.574l-.984-.879a.639.639,0,0,0-.8-.094.642.642,0,0,0-.3.727l.281,1.3a10.413,10.413,0,0,0-1.3,1.078l-1.23-.5a.65.65,0,0,0-.785.211.618.618,0,0,0-.059.75L-23.5-14.1a12.78,12.78,0,0,0-.832,1.465l-1.348-.047a.644.644,0,0,0-.656.434.645.645,0,0,0,.234.75l1.055.832A8.674,8.674,0,0,0-25.336-9l-1.277.41a.631.631,0,0,0-.469.633.631.631,0,0,0,.469.633l1.277.41a8.517,8.517,0,0,0,.293,1.664l-1.055.832a.7.7,0,0,0-.234.762.644.644,0,0,0,.656.434l1.348-.059A10.519,10.519,0,0,0-23.5-1.816L-24.211-.68a.617.617,0,0,0,.059.773A.636.636,0,0,0-23.367.3l1.23-.516a9.481,9.481,0,0,0,1.3,1.078l-.281,1.313a.656.656,0,0,0,.3.727.653.653,0,0,0,.8-.094l.973-.891a11.8,11.8,0,0,0,1.594.574l.188,1.336a.647.647,0,0,0,.551.574.652.652,0,0,0,.7-.352l.621-1.207C-15.094,2.871-14.824,2.895-14.531,2.895Zm2.824-11.613a3.028,3.028,0,0,0-2.859-2.18,3.2,3.2,0,0,0-.762.105l-3.117-5.332a8.852,8.852,0,0,1,3.914-.891,8.892,8.892,0,0,1,8.906,8.3Zm-11.766.773A9.079,9.079,0,0,1-19.8-15.316l3.141,5.367a2.944,2.944,0,0,0-.867,2.039,2.847,2.847,0,0,0,.867,2L-19.875-.645A9.031,9.031,0,0,1-23.473-7.945Zm7.57.023a1.361,1.361,0,0,1,1.348-1.336,1.351,1.351,0,0,1,1.371,1.336,1.368,1.368,0,0,1-1.371,1.348A1.379,1.379,0,0,1-15.9-7.922Zm1.371,9.035a8.874,8.874,0,0,1-4-.926l3.2-5.227a3.124,3.124,0,0,0,.762.105A3.025,3.025,0,0,0-11.707-7.16h6.082A8.889,8.889,0,0,1-14.531,1.113Z" transform="translate(27.082 20.314)" fill="#fff"/>
</svg>
