<svg xmlns="http://www.w3.org/2000/svg" width="22.523" height="19.102" viewBox="0 0 22.523 19.102">
  <path id="Контур_2321" data-name="Контур 2321" d="M18.117-12.094a2.74,2.74,0,0,0,2.555-1.77h3.773a.929.929,0,0,0,.9-.949.932.932,0,0,0-.9-.961H20.672a2.727,2.727,0,0,0-2.555-1.781,2.755,2.755,0,0,0-2.566,1.781H3.773a.948.948,0,0,0-.949.961.953.953,0,0,0,.949.949H15.563A2.729,2.729,0,0,0,18.117-12.094Zm0-1.406a1.315,1.315,0,0,1-1.324-1.324,1.308,1.308,0,0,1,1.324-1.324,1.291,1.291,0,0,1,1.313,1.324A1.3,1.3,0,0,1,18.117-13.5ZM3.727-8.953a.936.936,0,0,0-.9.949.936.936,0,0,0,.9.949h3.9A2.749,2.749,0,0,0,10.2-5.262,2.745,2.745,0,0,0,12.75-7.055H24.41A.935.935,0,0,0,25.348-8a.935.935,0,0,0-.937-.949H12.75a2.74,2.74,0,0,0-2.555-1.77,2.744,2.744,0,0,0-2.566,1.77ZM10.2-6.68A1.315,1.315,0,0,1,8.871-8,1.306,1.306,0,0,1,10.2-9.316,1.3,1.3,0,0,1,11.508-8,1.306,1.306,0,0,1,10.2-6.68Zm7.922,8.227A2.723,2.723,0,0,0,20.672-.234h3.773a.929.929,0,0,0,.9-.949.929.929,0,0,0-.9-.949H20.672a2.739,2.739,0,0,0-2.555-1.781,2.767,2.767,0,0,0-2.566,1.781H3.773a.945.945,0,0,0-.949.949.945.945,0,0,0,.949.949H15.551A2.738,2.738,0,0,0,18.117,1.547Zm0-1.406a1.315,1.315,0,0,1-1.324-1.324,1.308,1.308,0,0,1,1.324-1.324A1.291,1.291,0,0,1,19.43-1.184,1.3,1.3,0,0,1,18.117.141Z" transform="translate(-2.824 17.555)" fill="#10274a"/>
</svg>
