<svg xmlns="http://www.w3.org/2000/svg" width="39.287" height="30.779" viewBox="0 0 39.287 30.779">
  <path id="table" d="M-14.335,3.41h28.67c3.516,0,5.309-1.775,5.309-5.256V-22.131c0-3.463-1.793-5.238-5.309-5.238h-28.67c-3.516,0-5.309,1.758-5.309,5.238V-1.846C-19.644,1.635-17.851,3.41-14.335,3.41Zm-2.408-25.348a2.253,2.253,0,0,1,2.514-2.531h12.8v6.416H-16.743Zm30.973-2.531a2.261,2.261,0,0,1,2.514,2.531v3.885H1.433v-6.416ZM-16.743-8.754v-6.451H-1.433v6.451Zm18.176,0v-6.451H16.743v6.451ZM-14.229.51a2.266,2.266,0,0,1-2.514-2.549V-5.924H-1.433V.51ZM16.743-2.039A2.274,2.274,0,0,1,14.229.51H1.433V-5.924H16.743Z" transform="translate(19.644 27.369)" fill="#10274a" opacity="0.1"/>
</svg>
