<svg xmlns="http://www.w3.org/2000/svg" width="19.418" height="20.59" viewBox="0 0 19.418 20.59">
  <path id="user" d="M.006-7.793a5.042,5.042,0,0,0,4.8-5.227,4.923,4.923,0,0,0-4.8-5.086A4.968,4.968,0,0,0-4.811-13,5.045,5.045,0,0,0,.006-7.793Zm0-1.758A3.232,3.232,0,0,1-2.936-13,3.134,3.134,0,0,1,.006-16.348,3.12,3.12,0,0,1,2.947-13.02,3.247,3.247,0,0,1,.006-9.551ZM-6.943,2.484H6.943c1.875,0,2.766-.574,2.766-1.816,0-2.953-3.715-7.113-9.715-7.113s-9.7,4.16-9.7,7.113C-9.709,1.91-8.818,2.484-6.943,2.484ZM-7.412.727c-.281,0-.4-.082-.4-.3,0-1.781,2.789-5.109,7.8-5.109S7.811-1.359,7.811.422c0,.223-.117.3-.4.3Z" transform="translate(9.709 18.105)" fill="#fff"/>
</svg>
